M48
M71,LZ
T01C0.3
%
T01
X-012600Y-002745
X-012600Y-004745
X-011200Y-001200
X-011200Y-006600
X-009310Y-006600
X-009200Y-001200
X-009100Y-003400
X-009100Y-004300
X-007600Y-003400
X-007600Y-004300
X-007310Y-006600
X-007200Y-001200
X-005850Y-000100
X-005200Y-006600
X-004400Y-003800
X-003200Y-006600
X-002950Y-000100
X-001200Y-001200
X-001200Y-006600
X000800Y014600
X000800Y-001200
X000800Y-006600
X004600Y006400
X008600Y-007400
X010600Y007600
X012600Y-007400
X014600Y007600
X016600Y-007400
X018600Y007600
X020600Y-007400
X022600Y007600
T00
M30
